HIERARCHY
ROOT hip
{
  OFFSET 5.51535 103.731 -2.80141
  CHANNELS 6 Xposition Yposition Zposition Zrotation Xrotation Yrotation
  JOINT abdomen
  {
    OFFSET 0 -1.186 -1.5018
    CHANNELS 6 Xposition Yposition Zposition Zrotation Xrotation Yrotation
    JOINT abdomen2
    {
      OFFSET 0 9.964 0.2134
      CHANNELS 6 Xposition Yposition Zposition Zrotation Xrotation Yrotation
      JOINT chest
      {
        OFFSET 0 13.134 -3.2573
        CHANNELS 6 Xposition Yposition Zposition Zrotation Xrotation Yrotation
        JOINT neck
        {
          OFFSET 0 20.686 -1.6905
          CHANNELS 6 Xposition Yposition Zposition Zrotation Xrotation Yrotation
          JOINT head
          {
            OFFSET 0 7.23801 -0.1237
            CHANNELS 6 Xposition Yposition Zposition Zrotation Xrotation Yrotation
            End Site
            {
              OFFSET 0 0 0
            }
          }
        }
        JOINT lCollar
        {
          OFFSET 1.7069 20.075 5.0056
          CHANNELS 6 Xposition Yposition Zposition Zrotation Xrotation Yrotation
          JOINT lShldr
          {
            OFFSET 13.6458 -0.0470195 -4.849
            CHANNELS 6 Xposition Yposition Zposition Zrotation Xrotation Yrotation
            JOINT lForeArm
            {
              OFFSET 28.3255 -0.97589 2.2888
              CHANNELS 6 Xposition Yposition Zposition Zrotation Xrotation Yrotation
              JOINT lHand
              {
                OFFSET 22.1583 -0.529998 10.8316
                CHANNELS 6 Xposition Yposition Zposition Zrotation Xrotation Yrotation
                JOINT lThumb1
                {
                  OFFSET 0.786 0.111997 2.5817
                  CHANNELS 6 Xposition Yposition Zposition Zrotation Xrotation Yrotation
                  JOINT lThumb2
                  {
                    OFFSET 0.360097 -0.877999 4.2331
                    CHANNELS 6 Xposition Yposition Zposition Zrotation Xrotation Yrotation
                    JOINT lThumb2_End
                    {
                      OFFSET 1.8127 -1.21601 2.2227
                      CHANNELS 6 Xposition Yposition Zposition Zrotation Xrotation Yrotation
                      End Site
                      {
                        OFFSET 0.0180981 -0.012195 0.0222007
                      }
                    }
                  }
                }
                JOINT lCarpal1
                {
                  OFFSET 0.9571 1.114 1.7695
                  CHANNELS 6 Xposition Yposition Zposition Zrotation Xrotation Yrotation
                  JOINT lIndex1
                  {
                    OFFSET 4.12461 0.486992 4.1451
                    CHANNELS 6 Xposition Yposition Zposition Zrotation Xrotation Yrotation
                    JOINT lIndex2
                    {
                      OFFSET 3.4052 -1.45401 2.7682
                      CHANNELS 6 Xposition Yposition Zposition Zrotation Xrotation Yrotation
                      JOINT lIndex2_End
                      {
                        OFFSET 1.45309 -1.79499 1.2713
                        CHANNELS 6 Xposition Yposition Zposition Zrotation Xrotation Yrotation
                        End Site
                        {
                          OFFSET 0.0144979 -0.0179083 0.0126995
                        }
                      }
                    }
                  }
                  JOINT lMid1
                  {
                    OFFSET 5.6954 0.209987 2.1184
                    CHANNELS 6 Xposition Yposition Zposition Zrotation Xrotation Yrotation
                    JOINT lMid2
                    {
                      OFFSET 3.9766 -1.53999 2.3863
                      CHANNELS 6 Xposition Yposition Zposition Zrotation Xrotation Yrotation
                      JOINT lMid2_End
                      {
                        OFFSET 1.4042 -1.926 1.125
                        CHANNELS 6 Xposition Yposition Zposition Zrotation Xrotation Yrotation
                        End Site
                        {
                          OFFSET 0.013999 -0.0193044 0.011301
                        }
                      }
                    }
                  }
                }
                JOINT lCarpal2
                {
                  OFFSET 2.0956 0.66 -0.3894
                  CHANNELS 6 Xposition Yposition Zposition Zrotation Xrotation Yrotation
                  JOINT lRing1
                  {
                    OFFSET 5.0395 -0.090013 2.4971
                    CHANNELS 6 Xposition Yposition Zposition Zrotation Xrotation Yrotation
                    JOINT lRing2
                    {
                      OFFSET 3.7921 -1.55199 1.4806
                      CHANNELS 6 Xposition Yposition Zposition Zrotation Xrotation Yrotation
                      JOINT lRing2_End
                      {
                        OFFSET 1.4655 -1.808 0.9609
                        CHANNELS 6 Xposition Yposition Zposition Zrotation Xrotation Yrotation
                        End Site
                        {
                          OFFSET 0.0147015 -0.0181014 0.00959957
                        }
                      }
                    }
                  }
                  JOINT lPinky1
                  {
                    OFFSET 4.9141 -1.269 0.3591
                    CHANNELS 6 Xposition Yposition Zposition Zrotation Xrotation Yrotation
                    JOINT lPinky2
                    {
                      OFFSET 3.1477 -1.685 0.8462
                      CHANNELS 6 Xposition Yposition Zposition Zrotation Xrotation Yrotation
                      JOINT lPinky2_End
                      {
                        OFFSET 0.805498 -1.58501 0.795499
                        CHANNELS 6 Xposition Yposition Zposition Zrotation Xrotation Yrotation
                        End Site
                        {
                          OFFSET 0.00809703 -0.0157944 0.00799848
                        }
                      }
                    }
                  }
                }
              }
            }
          }
        }
        JOINT rCollar
        {
          OFFSET -1.7069 20.075 5.0056
          CHANNELS 6 Xposition Yposition Zposition Zrotation Xrotation Yrotation
          JOINT rShldr
          {
            OFFSET -13.6458 -0.0470107 -4.849
            CHANNELS 6 Xposition Yposition Zposition Zrotation Xrotation Yrotation
            JOINT rForeArm
            {
              OFFSET -28.3255 -0.975895 2.2888
              CHANNELS 6 Xposition Yposition Zposition Zrotation Xrotation Yrotation
              JOINT rHand
              {
                OFFSET -22.1583 -0.530007 10.8316
                CHANNELS 6 Xposition Yposition Zposition Zrotation Xrotation Yrotation
                JOINT rThumb1
                {
                  OFFSET -0.785997 0.112005 2.5817
                  CHANNELS 6 Xposition Yposition Zposition Zrotation Xrotation Yrotation
                  JOINT rThumb2
                  {
                    OFFSET -0.360106 -0.877994 4.2331
                    CHANNELS 6 Xposition Yposition Zposition Zrotation Xrotation Yrotation
                    JOINT rThumb2_End
                    {
                      OFFSET -1.8127 -1.216 2.2227
                      CHANNELS 6 Xposition Yposition Zposition Zrotation Xrotation Yrotation
                      End Site
                      {
                        OFFSET -0.0180972 -0.0121973 0.0222005
                      }
                    }
                  }
                }
                JOINT rCarpal1
                {
                  OFFSET -0.9571 1.114 1.7695
                  CHANNELS 6 Xposition Yposition Zposition Zrotation Xrotation Yrotation
                  JOINT rIndex1
                  {
                    OFFSET -4.1246 0.487011 4.1451
                    CHANNELS 6 Xposition Yposition Zposition Zrotation Xrotation Yrotation
                    JOINT rIndex2
                    {
                      OFFSET -3.4052 -1.45401 2.7682
                      CHANNELS 6 Xposition Yposition Zposition Zrotation Xrotation Yrotation
                      JOINT rIndex2_End
                      {
                        OFFSET -1.4531 -1.795 1.2713
                        CHANNELS 6 Xposition Yposition Zposition Zrotation Xrotation Yrotation
                        End Site
                        {
                          OFFSET -0.0145077 -0.0180048 0.0127017
                        }
                      }
                    }
                  }
                  JOINT rMid1
                  {
                    OFFSET -5.6954 0.210002 2.1184
                    CHANNELS 6 Xposition Yposition Zposition Zrotation Xrotation Yrotation
                    JOINT rMid2
                    {
                      OFFSET -3.9766 -1.54 2.3863
                      CHANNELS 6 Xposition Yposition Zposition Zrotation Xrotation Yrotation
                      JOINT rMid2_End
                      {
                        OFFSET -1.4042 -1.926 1.125
                        CHANNELS 6 Xposition Yposition Zposition Zrotation Xrotation Yrotation
                        End Site
                        {
                          OFFSET -0.0139948 -0.0192916 0.0112994
                        }
                      }
                    }
                  }
                }
                JOINT rCarpal2
                {
                  OFFSET -2.0956 0.66 -0.3894
                  CHANNELS 6 Xposition Yposition Zposition Zrotation Xrotation Yrotation
                  JOINT rRing1
                  {
                    OFFSET -5.03951 -0.0899879 2.4971
                    CHANNELS 6 Xposition Yposition Zposition Zrotation Xrotation Yrotation
                    JOINT rRing2
                    {
                      OFFSET -3.7921 -1.55201 1.4806
                      CHANNELS 6 Xposition Yposition Zposition Zrotation Xrotation Yrotation
                      JOINT rRing2_End
                      {
                        OFFSET -1.4655 -1.808 0.960901
                        CHANNELS 6 Xposition Yposition Zposition Zrotation Xrotation Yrotation
                        End Site
                        {
                          OFFSET -0.0146934 -0.0180999 0.00959832
                        }
                      }
                    }
                  }
                  JOINT rPinky1
                  {
                    OFFSET -4.91411 -1.26899 0.359202
                    CHANNELS 6 Xposition Yposition Zposition Zrotation Xrotation Yrotation
                    JOINT rPinky2
                    {
                      OFFSET -3.14769 -1.68501 0.846199
                      CHANNELS 6 Xposition Yposition Zposition Zrotation Xrotation Yrotation
                      JOINT rPinky2_End
                      {
                        OFFSET -0.805498 -1.585 0.7955
                        CHANNELS 6 Xposition Yposition Zposition Zrotation Xrotation Yrotation
                        End Site
                        {
                          OFFSET -0.00810035 -0.0158035 0.00800029
                        }
                      }
                    }
                  }
                }
              }
            }
          }
        }
      }
    }
  }
  JOINT lThigh
  {
    OFFSET 8.367 -8.2066 0.5982
    CHANNELS 6 Xposition Yposition Zposition Zrotation Xrotation Yrotation
    JOINT lShin
    {
      OFFSET 2.1923 -43.463 -0.4932
      CHANNELS 6 Xposition Yposition Zposition Zrotation Xrotation Yrotation
      JOINT lFoot
      {
        OFFSET 0.733301 -45.8593 -2.6451
        CHANNELS 6 Xposition Yposition Zposition Zrotation Xrotation Yrotation
        End Site
        {
          OFFSET 2.6618 -4.2699 12.3931
        }
      }
    }
  }
  JOINT rThigh
  {
    OFFSET -8.367 -8.2066 0.5982
    CHANNELS 6 Xposition Yposition Zposition Zrotation Xrotation Yrotation
    JOINT rShin
    {
      OFFSET -2.1923 -43.463 -0.4931
      CHANNELS 6 Xposition Yposition Zposition Zrotation Xrotation Yrotation
      JOINT rFoot
      {
        OFFSET -0.733299 -45.8593 -2.6451
        CHANNELS 6 Xposition Yposition Zposition Zrotation Xrotation Yrotation
        End Site
        {
          OFFSET -2.6618 -4.2699 12.3931
        }
      }
    }
  }
}
MOTION
Frames:	4
Frame Time:	0.0333333
1.2262 70.5341 -3.71942 -3.96693 3.67987 -2.66947 -1.17837e-007 -1.186 -1.5018 1.58806 6.41611 0.623575 1.16916e-007 9.96399 0.213401 3.1351 12.8468 1.07692 -2.02379e-008 13.134 -3.2573 3.1351 12.8468 1.07692 -1.05786e-005 20.6861 -1.69043 2.21013 11.43 1.88519 -3.85359e-006 7.23804 -0.123677 4.95402 15.37 4.81476 1.7069 20.075 5.0056 9.21047 -2.20475 5.52248 13.6458 -0.0470131 -4.849 -54.0409 -2.70622 0.828196 28.3255 -0.975893 2.28879 -30.3779 12.1339 -95.9577 22.1583 -0.52999 10.8316 -11.1963 8.98303 -22.7782 0.786004 0.111996 2.5817 -8.38647 1.76875 4.89216 0.360098 -0.877999 4.2331 3.61846 0.650245 6.67805 1.8127 -1.21601 2.2227 7.50404 1.85235 14.0024 0.9571 1.114 1.7695 3.18055e-015 -5.96354e-016 2.18663e-015 4.1246 0.486993 4.1451 0.135353 17.5735 11.5311 3.4052 -1.45401 2.7682 3.70085 -1.69847 -1.46775 1.4531 -1.79499 1.2713 -1.66931 0.728238 0.691418 5.6954 0.209986 2.1184 9.33914 6.2832 2.0169 3.9766 -1.53999 2.3863 -14.9028 6.28589 6.88603 1.4042 -1.926 1.125 -15.6991 6.56288 7.28904 2.0956 0.66 -0.3894 3.18055e-015 -5.96354e-016 2.18663e-015 5.0395 -0.0900133 2.4971 4.06424 -1.89993 6.08782 3.7921 -1.55199 1.4806 -11.9491 5.58238 6.13215 1.4655 -1.808 0.960902 -13.677 6.26006 7.08597 4.9141 -1.269 0.359101 5.31853 -3.10513 19.9835 3.1477 -1.685 0.846202 -11.1506 5.66747 5.65303 0.805498 -1.58501 0.795498 -16.4262 7.84973 8.58339 -1.7069 20.075 5.0056 -15.5864 -0.141508 4.07724 -13.6458 -0.0470155 -4.849 38.6173 -16.4574 -42.2817 -28.3255 -0.975884 2.2888 26.5321 24.9152 100.689 -22.1583 -0.530007 10.8316 -72.1611 23.3929 43.8409 -0.786001 0.112001 2.5817 12.2514 -14.8579 -17.9717 -0.360107 -0.877993 4.2331 -2.9639 3.04171 -9.68688 -1.8127 -1.21601 2.2227 -4.93272 5.78295 -17.2848 -0.9571 1.114 1.7695 5.29669e-031 2.38542e-015 -1.27222e-014 -4.12461 0.487008 4.1451 29.2898 19.337 -10.9116 -3.4052 -1.45401 2.7682 17.7434 5.39562 -3.33075 -1.4531 -1.795 1.2713 23.8179 6.946 -4.8157 -5.6954 0.209999 2.1184 13.2161 12.4728 -2.28535 -3.9766 -1.54 2.3863 29.9051 9.50936 -6.66649 -1.4042 -1.926 1.125 5.73675 2.11053 -0.892775 -2.0956 0.66 -0.3894 5.29669e-031 2.38542e-015 -1.27222e-014 -5.03951 -0.0899864 2.4971 16.7611 4.39589 -11.1324 -3.7921 -1.55201 1.4806 26.6802 9.35958 -7.0135 -1.4655 -1.808 0.960901 3.94443 1.6077 -0.766028 -4.91411 -1.26898 0.359204 18.9624 0.606351 -24.419 -3.1477 -1.68501 0.846198 25.7173 9.89708 -6.55133 -0.805501 -1.585 0.795501 6.9348 3.00089 -1.34128 8.36699 -8.2066 0.5982 -60.5964 -79.7245 -71.6424 2.19234 -43.463 -0.49463 -147.427 81.7979 156.113 0.733298 -45.8594 -2.6451 0.265579 6.30791 -2.76128 -8.367 -8.2066 0.5982 4.11961 -78.6828 2.87607 -2.19143 -43.4629 -0.502776 97.5065 74.3924 -94.7265 -0.733309 -45.8594 -2.64509 -8.55531 -5.8613 -13.1375 
1.20775 70.5518 -3.75162 -3.99812 3.2583 -2.63912 -2.99083e-008 -1.186 -1.5018 1.59092 6.36206 0.600729 -1.59447e-007 9.964 0.2134 3.1436 12.7382 1.03186 -1.28874e-008 13.134 -3.2573 3.1436 12.7382 1.03186 -5.8242e-006 20.6861 -1.69049 1.98251 11.2627 1.56953 -4.12318e-006 7.23802 -0.123684 4.81209 15.1722 4.46183 1.7069 20.075 5.0056 9.26745 -2.15752 5.62402 13.6458 -0.0470088 -4.849 -53.3861 0.985803 3.90203 28.3255 -0.975902 2.2888 -30.7404 8.66077 -98.1224 22.1583 -0.529985 10.8316 -6.44563 13.468 -21.4855 0.786003 0.111996 2.5817 -8.38648 1.76873 4.89215 0.360099 -0.878 4.2331 3.61856 0.650329 6.67798 1.8127 -1.21601 2.2227 7.50401 1.8523 14.0024 0.9571 1.114 1.7695 -7.44847e-032 -3.57812e-015 -1.19271e-015 4.1246 0.486992 4.1451 1.54328 17.2141 10.3963 3.4052 -1.45401 2.7682 5.09298 -2.36645 -1.99534 1.4531 -1.79499 1.2713 -0.293104 0.129607 0.120062 5.6954 0.209989 2.1184 11.4864 5.30336 0.921669 3.9766 -1.53999 2.3863 -12.6734 5.48557 5.77941 1.4042 -1.926 1.125 -13.4956 5.78755 6.1853 2.0956 0.66 -0.3894 -7.44847e-032 -3.57812e-015 -1.19271e-015 5.0395 -0.0900108 2.4971 6.20752 -2.78036 5.20905 3.7921 -1.55199 1.4806 -9.79452 4.69556 4.96642 1.4655 -1.808 0.960899 -11.5387 5.41957 5.90941 4.9141 -1.269 0.359104 7.61666 -3.50794 19.182 3.1477 -1.685 0.8462 -9.02425 4.69639 4.51388 0.805502 -1.58501 0.795498 -14.274 6.99872 7.37124 -1.7069 20.075 5.0056 -15.5864 -0.141508 4.07724 -13.6458 -0.0470126 -4.84901 38.9908 -16.6283 -41.0108 -28.3255 -0.975884 2.28881 26.612 24.523 100.157 -22.1583 -0.530004 10.8316 -71.9533 24.5361 43.6355 -0.786003 0.112006 2.5817 12.2514 -14.8579 -17.9717 -0.360107 -0.87799 4.2331 -2.96392 3.04172 -9.68686 -1.8127 -1.216 2.2227 -4.93273 5.78295 -17.2848 -0.9571 1.114 1.7695 1.59028e-015 2.38542e-015 -3.18055e-015 -4.12461 0.487014 4.1451 29.2898 19.337 -10.9116 -3.4052 -1.45401 2.7682 17.7434 5.39563 -3.33075 -1.4531 -1.795 1.2713 23.8179 6.94602 -4.81569 -5.69541 0.210004 2.1184 13.2161 12.4728 -2.28535 -3.9766 -1.54 2.3863 29.9052 9.50923 -6.66648 -1.4042 -1.926 1.125 5.73675 2.11053 -0.892781 -2.0956 0.66 -0.3894 1.59028e-015 2.38542e-015 -3.18055e-015 -5.03951 -0.0899884 2.4971 16.7612 4.39592 -11.1324 -3.7921 -1.552 1.4806 26.6802 9.35938 -7.01354 -1.4655 -1.808 0.9609 3.94444 1.6077 -0.766023 -4.91411 -1.26899 0.3592 18.9624 0.606398 -24.419 -3.1477 -1.68501 0.846197 25.7173 9.8971 -6.55133 -0.805499 -1.585 0.795501 6.93482 3.0009 -1.34128 8.36701 -8.20662 0.598202 -58.6977 -79.3579 -69.6906 2.19234 -43.463 -0.494311 -147.268 81.8226 155.929 0.733299 -45.8594 -2.6451 0.330055 6.29085 -2.78338 -8.367 -8.20661 0.598201 2.20008 -78.8883 0.983629 -2.19186 -43.463 -0.497091 97.6174 74.4234 -94.8335 -0.733294 -45.8593 -2.6451 -8.38178 -5.30928 -13.1253 
1.16783 70.6033 -3.74539 -4.03514 2.76789 -2.61053 4.47355e-007 -1.186 -1.5018 1.59373 6.31395 0.578739 9.93977e-008 9.964 0.2134 3.15181 12.6414 0.988416 7.27538e-008 13.134 -3.2573 3.15181 12.6414 0.988417 -2.3511e-006 20.6861 -1.69047 1.61233 10.9669 1.1577 -3.17653e-006 7.23804 -0.12368 4.53893 14.8305 4.00243 1.7069 20.075 5.0056 9.32807 -2.10732 5.73203 13.6458 -0.0470106 -4.849 -53.044 8.96184 6.66178 28.3255 -0.975893 2.2888 -31.7432 1.34578 -102.248 22.1583 -0.529992 10.8316 0.700643 18.0862 -21.4015 0.786003 0.111999 2.5817 -8.38649 1.76871 4.89215 0.360098 -0.877999 4.2331 3.61854 0.650318 6.67799 1.8127 -1.21601 2.2227 7.50399 1.85227 14.0024 0.9571 1.114 1.7695 -3.18055e-015 2.78299e-015 -1.59028e-015 4.1246 0.486992 4.1451 3.00695 16.8463 9.23997 3.4052 -1.45401 2.7682 6.60241 -3.10798 -2.5514 1.4531 -1.79499 1.2713 1.16304 -0.521441 -0.471272 5.6954 0.209987 2.1184 13.57 4.31677 -0.105769 3.9766 -1.53999 2.3863 -10.5202 4.66346 4.73228 1.4042 -1.926 1.125 -11.3105 4.97074 5.11375 2.0956 0.66 -0.3894 -3.18055e-015 2.78299e-015 -1.59028e-015 5.0395 -0.0900127 2.4971 8.2931 -3.67395 4.39144 3.7921 -1.55199 1.4806 -7.7177 3.78891 3.86493 1.4655 -1.808 0.960899 -9.42084 4.53619 4.76668 4.9141 -1.269 0.359102 9.86545 -3.93613 18.4437 3.1477 -1.68501 0.846198 -6.97304 3.71013 3.44029 0.8055 -1.58501 0.7955 -12.1441 6.10337 6.19421 -1.7069 20.075 5.0056 -15.5864 -0.141527 4.07721 -13.6458 -0.0470118 -4.849 39.5546 -16.831 -39.5492 -28.3255 -0.975888 2.2888 26.6879 23.9486 99.5982 -22.1583 -0.530012 10.8316 -71.6846 25.8548 43.4788 -0.786001 0.112006 2.5817 12.2515 -14.858 -17.9717 -0.360106 -0.877993 4.2331 -2.96397 3.04175 -9.68678 -1.81269 -1.216 2.2227 -4.93272 5.78296 -17.2848 -0.9571 1.114 1.7695 -1.59028e-015 0 3.18055e-015 -4.12461 0.487013 4.1451 29.2898 19.337 -10.9116 -3.4052 -1.45401 2.7682 17.7434 5.39563 -3.33076 -1.4531 -1.795 1.2713 23.8178 6.94605 -4.81569 -5.69541 0.210002 2.1184 13.2161 12.4728 -2.28533 -3.9766 -1.54 2.3863 29.9051 9.50921 -6.66648 -1.4042 -1.926 1.125 5.73674 2.11054 -0.892752 -2.0956 0.66 -0.3894 -1.59028e-015 0 3.18055e-015 -5.03951 -0.0899905 2.4971 16.7611 4.39594 -11.1324 -3.7921 -1.55201 1.4806 26.6802 9.35938 -7.01355 -1.4655 -1.808 0.9609 3.94441 1.60769 -0.766025 -4.91411 -1.26899 0.3592 18.9623 0.60646 -24.4191 -3.1477 -1.685 0.846198 25.7173 9.8971 -6.5513 -0.8055 -1.585 0.795501 6.93478 3.0009 -1.34128 8.36701 -8.2066 0.598201 -56.306 -78.8976 -67.2685 2.19228 -43.463 -0.492802 -147.065 81.8531 155.682 0.733299 -45.8594 -2.6451 0.380337 6.20571 -2.80724 -8.36701 -8.20661 0.598201 -3.3029 -80.0676 -4.52818 -2.19255 -43.463 -0.491404 97.7564 74.4986 -94.9071 -0.733305 -45.8593 -2.64511 -8.05828 -3.92901 -13.0384 
1.12126 70.6838 -3.71088 -4.0775 2.21838 -2.58426 2.03065e-008 -1.186 -1.5018 1.59635 6.27037 0.55758 2.04931e-007 9.96399 0.213401 3.15957 12.5537 0.946587 2.52367e-008 13.134 -3.2573 3.15957 12.5537 0.946587 3.12421e-007 20.6861 -1.69052 1.11433 10.557 0.658685 -3.31368e-006 7.23801 -0.123678 4.1436 14.3633 3.44805 1.7069 20.075 5.0056 9.38859 -2.05696 5.83998 13.6458 -0.0470065 -4.84901 -53.4535 14.5372 9.53515 28.3255 -0.975905 2.2888 -32.8252 -3.85883 -105.324 22.1583 -0.529983 10.8316 8.52422 22.2199 -22.8356 0.786004 0.111997 2.5817 -8.38653 1.76866 4.89216 0.360098 -0.877999 4.2331 3.61853 0.650314 6.67798 1.8127 -1.21601 2.2227 7.50394 1.85216 14.0025 0.9571 1.114 1.7695 -5.51738e-033 -3.97569e-016 -7.95139e-016 4.1246 0.486992 4.1451 4.52697 16.4543 8.06693 3.4052 -1.454 2.7682 8.11665 -3.86937 -3.09193 1.4531 -1.79499 1.2713 2.63057 -1.19562 -1.053 5.6954 0.209988 2.1184 15.5337 3.35543 -1.04088 3.9766 -1.54 2.3863 -8.49428 3.84811 3.7694 1.4042 -1.926 1.125 -9.27832 4.16869 4.1393 2.0956 0.66 -0.3894 -5.51738e-033 -3.97569e-016 -7.95139e-016 5.0395 -0.0900123 2.4971 10.2638 -4.55045 3.65355 3.7921 -1.55199 1.4806 -5.76614 2.89287 2.85222 1.4655 -1.808 0.960897 -7.4539 3.67047 3.7269 4.9141 -1.269 0.359099 12.0007 -4.37245 17.7837 3.1477 -1.685 0.8462 -5.04677 2.73996 2.45625 0.8055 -1.58501 0.795497 -10.1676 5.22524 5.12345 -1.7069 20.075 5.0056 -15.5864 -0.141509 4.07718 -13.6458 -0.0470153 -4.849 40.2752 -17.0459 -37.937 -28.3255 -0.975886 2.28881 26.7622 23.2257 99.0044 -22.1583 -0.530016 10.8316 -71.3698 27.3029 43.3733 -0.786003 0.112007 2.5817 12.2515 -14.8581 -17.9717 -0.360105 -0.877996 4.2331 -2.96389 3.04167 -9.68683 -1.8127 -1.216 2.2227 -4.93273 5.78297 -17.2848 -0.9571 1.114 1.7695 7.95139e-015 7.95139e-016 -0 -4.12461 0.487015 4.1451 29.2898 19.337 -10.9116 -3.4052 -1.454 2.7682 17.7434 5.39566 -3.33074 -1.4531 -1.79499 1.2713 23.8178 6.94611 -4.81569 -5.69541 0.210002 2.1184 13.2161 12.4729 -2.28536 -3.9766 -1.54 2.3863 29.9051 9.50921 -6.66648 -1.4042 -1.926 1.125 5.73673 2.11054 -0.892751 -2.0956 0.66 -0.3894 7.95139e-015 7.95139e-016 -0 -5.03951 -0.0899854 2.4971 16.7611 4.39602 -11.1325 -3.7921 -1.552 1.4806 26.6802 9.35938 -7.01354 -1.4655 -1.808 0.960902 3.94442 1.6077 -0.766029 -4.91411 -1.26899 0.359201 18.9624 0.606301 -24.419 -3.1477 -1.68501 0.8462 25.7173 9.89712 -6.55131 -0.8055 -1.585 0.795501 6.93478 3.00089 -1.34128 8.36701 -8.20661 0.598201 -53.6658 -78.3419 -64.6051 2.19228 -43.463 -0.492932 -146.82 81.8921 155.394 0.733301 -45.8593 -2.6451 0.424475 6.07075 -2.83263 -8.36703 -8.20661 0.598201 -12.9986 -81.8458 -14.3572 -2.19249 -43.463 -0.492033 97.3913 74.6185 -94.4003 -0.733306 -45.8593 -2.6451 -7.73879 -2.12933 -12.92 
